<mxfile host="app.diagrams.net" agent="Mozilla/5.0 (Windows NT 10.0; Win64; x64) AppleWebKit/537.36 (KHTML, like Gecko) Chrome/128.0.0.0 Safari/537.36 Edg/128.0.0.0" version="24.7.7">
  <diagram id="Ht1M8jgEwFfnCIfOTk4-" name="Page-1">
    <mxGraphModel dx="3129" dy="921" grid="1" gridSize="10" guides="1" tooltips="1" connect="1" arrows="1" fold="1" page="1" pageScale="1" pageWidth="1169" pageHeight="827" math="0" shadow="0">
      <root>
        <mxCell id="0" />
        <mxCell id="1" parent="0" />
        <mxCell id="dy0-1PoWe1TbCDGHFwGR-15" value="Frontend CI/CD" style="fillColor=none;strokeColor=#c925d1;dashed=1;verticalAlign=top;fontStyle=0;fontColor=#5A6C86;whiteSpace=wrap;html=1;" parent="1" vertex="1">
          <mxGeometry x="60" y="1220" width="440" height="130" as="geometry" />
        </mxCell>
        <mxCell id="-QjtrjUzRDEMRZ5MF8oH-47" value="EasyMap" style="text;html=1;resizable=0;points=[];autosize=1;align=left;verticalAlign=top;spacingTop=-4;fontSize=30;fontStyle=1" parent="1" vertex="1">
          <mxGeometry x="56.5" y="64.5" width="150" height="40" as="geometry" />
        </mxCell>
        <mxCell id="-QjtrjUzRDEMRZ5MF8oH-48" value="구성_v1.2" style="text;html=1;resizable=0;points=[];autosize=1;align=left;verticalAlign=top;spacingTop=-4;fontSize=16" parent="1" vertex="1">
          <mxGeometry x="56.5" y="114.5" width="90" height="30" as="geometry" />
        </mxCell>
        <mxCell id="SCVMTBWpLvtzJIhz15lM-1" value="" style="line;strokeWidth=2;html=1;fontSize=14;" parent="1" vertex="1">
          <mxGeometry x="52.5" y="139.5" width="1060" height="10" as="geometry" />
        </mxCell>
        <mxCell id="1tYCDRSDsCQzgZWJvc7a-12" value="AWS Cloud" style="points=[[0,0],[0.25,0],[0.5,0],[0.75,0],[1,0],[1,0.25],[1,0.5],[1,0.75],[1,1],[0.75,1],[0.5,1],[0.25,1],[0,1],[0,0.75],[0,0.5],[0,0.25]];outlineConnect=0;gradientColor=none;html=1;whiteSpace=wrap;fontSize=12;fontStyle=0;container=1;pointerEvents=0;collapsible=0;recursiveResize=0;shape=mxgraph.aws4.group;grIcon=mxgraph.aws4.group_aws_cloud_alt;strokeColor=#232F3E;fillColor=none;verticalAlign=top;align=left;spacingLeft=30;fontColor=#232F3E;dashed=0;" parent="1" vertex="1">
          <mxGeometry x="40" y="184.5" width="1400" height="1215.5" as="geometry" />
        </mxCell>
        <mxCell id="1tYCDRSDsCQzgZWJvc7a-14" value="Region" style="points=[[0,0],[0.25,0],[0.5,0],[0.75,0],[1,0],[1,0.25],[1,0.5],[1,0.75],[1,1],[0.75,1],[0.5,1],[0.25,1],[0,1],[0,0.75],[0,0.5],[0,0.25]];outlineConnect=0;gradientColor=none;html=1;whiteSpace=wrap;fontSize=12;fontStyle=0;container=1;pointerEvents=0;collapsible=0;recursiveResize=0;shape=mxgraph.aws4.group;grIcon=mxgraph.aws4.group_region;strokeColor=#00A4A6;fillColor=none;verticalAlign=top;align=left;spacingLeft=30;fontColor=#147EBA;dashed=1;" parent="1tYCDRSDsCQzgZWJvc7a-12" vertex="1">
          <mxGeometry x="340" y="220" width="976.98" height="800" as="geometry" />
        </mxCell>
        <mxCell id="1tYCDRSDsCQzgZWJvc7a-15" value="Availability Zone" style="fillColor=none;strokeColor=#147EBA;dashed=1;verticalAlign=top;fontStyle=0;fontColor=#147EBA;whiteSpace=wrap;html=1;" parent="1tYCDRSDsCQzgZWJvc7a-14" vertex="1">
          <mxGeometry x="20" y="50" width="940" height="410" as="geometry" />
        </mxCell>
        <mxCell id="1tYCDRSDsCQzgZWJvc7a-49" value="Private subnet(DB)" style="points=[[0,0],[0.25,0],[0.5,0],[0.75,0],[1,0],[1,0.25],[1,0.5],[1,0.75],[1,1],[0.75,1],[0.5,1],[0.25,1],[0,1],[0,0.75],[0,0.5],[0,0.25]];outlineConnect=0;gradientColor=none;html=1;whiteSpace=wrap;fontSize=12;fontStyle=0;container=1;pointerEvents=0;collapsible=0;recursiveResize=0;shape=mxgraph.aws4.group;grIcon=mxgraph.aws4.group_security_group;grStroke=0;strokeColor=#00A4A6;fillColor=#E6F6F7;verticalAlign=top;align=left;spacingLeft=30;fontColor=#147EBA;dashed=0;" parent="1tYCDRSDsCQzgZWJvc7a-14" vertex="1">
          <mxGeometry x="670" y="100" width="200" height="327" as="geometry" />
        </mxCell>
        <mxCell id="glTbuXtbrnzx0vPCisSr-2" value="VPC" style="points=[[0,0],[0.25,0],[0.5,0],[0.75,0],[1,0],[1,0.25],[1,0.5],[1,0.75],[1,1],[0.75,1],[0.5,1],[0.25,1],[0,1],[0,0.75],[0,0.5],[0,0.25]];outlineConnect=0;gradientColor=none;html=1;whiteSpace=wrap;fontSize=12;fontStyle=0;container=1;pointerEvents=0;collapsible=0;recursiveResize=0;shape=mxgraph.aws4.group;grIcon=mxgraph.aws4.group_vpc2;strokeColor=#8C4FFF;fillColor=none;verticalAlign=top;align=left;spacingLeft=30;fontColor=#AAB7B8;dashed=0;" parent="1tYCDRSDsCQzgZWJvc7a-14" vertex="1">
          <mxGeometry x="30" y="70" width="920" height="385.5" as="geometry" />
        </mxCell>
        <mxCell id="1tYCDRSDsCQzgZWJvc7a-74" value="Public subnet" style="points=[[0,0],[0.25,0],[0.5,0],[0.75,0],[1,0],[1,0.25],[1,0.5],[1,0.75],[1,1],[0.75,1],[0.5,1],[0.25,1],[0,1],[0,0.75],[0,0.5],[0,0.25]];outlineConnect=0;gradientColor=none;html=1;whiteSpace=wrap;fontSize=12;fontStyle=0;container=1;pointerEvents=0;collapsible=0;recursiveResize=0;shape=mxgraph.aws4.group;grIcon=mxgraph.aws4.group_security_group;grStroke=0;strokeColor=#7AA116;fillColor=#F2F6E8;verticalAlign=top;align=left;spacingLeft=30;fontColor=#248814;dashed=0;" parent="glTbuXtbrnzx0vPCisSr-2" vertex="1">
          <mxGeometry x="120" y="210" width="510" height="160" as="geometry" />
        </mxCell>
        <mxCell id="1tYCDRSDsCQzgZWJvc7a-51" value="Security group" style="fillColor=none;strokeColor=#DD3522;verticalAlign=top;fontStyle=0;fontColor=#DD3522;whiteSpace=wrap;html=1;direction=south;" parent="glTbuXtbrnzx0vPCisSr-2" vertex="1">
          <mxGeometry x="677.25" y="230.75" width="130" height="115" as="geometry" />
        </mxCell>
        <mxCell id="dy0-1PoWe1TbCDGHFwGR-39" value="Dynamo DB" style="sketch=0;points=[[0,0,0],[0.25,0,0],[0.5,0,0],[0.75,0,0],[1,0,0],[0,1,0],[0.25,1,0],[0.5,1,0],[0.75,1,0],[1,1,0],[0,0.25,0],[0,0.5,0],[0,0.75,0],[1,0.25,0],[1,0.5,0],[1,0.75,0]];outlineConnect=0;fontColor=#FF6666;fillColor=#C925D1;strokeColor=#ffffff;dashed=0;verticalLabelPosition=bottom;verticalAlign=top;align=center;html=1;fontSize=12;fontStyle=0;aspect=fixed;shape=mxgraph.aws4.resourceIcon;resIcon=mxgraph.aws4.dynamodb;" parent="glTbuXtbrnzx0vPCisSr-2" vertex="1">
          <mxGeometry x="720" y="266" width="44.5" height="44.5" as="geometry" />
        </mxCell>
        <mxCell id="XonzfU6cnXxWhyrc8ULt-5" value="Security group" style="fillColor=none;strokeColor=#DD3522;verticalAlign=top;fontStyle=0;fontColor=#DD3522;whiteSpace=wrap;html=1;direction=south;" parent="glTbuXtbrnzx0vPCisSr-2" vertex="1">
          <mxGeometry x="677.25" y="75.5" width="130" height="124.5" as="geometry" />
        </mxCell>
        <mxCell id="XonzfU6cnXxWhyrc8ULt-4" value="RDS For&lt;div&gt;PostgreSQL&lt;/div&gt;" style="sketch=0;outlineConnect=0;fontColor=#232F3E;gradientColor=none;fillColor=#C925D1;strokeColor=none;dashed=0;verticalLabelPosition=bottom;verticalAlign=top;align=center;html=1;fontSize=12;fontStyle=0;aspect=fixed;pointerEvents=1;shape=mxgraph.aws4.rds_postgresql_instance;" parent="glTbuXtbrnzx0vPCisSr-2" vertex="1">
          <mxGeometry x="715" y="105.75" width="54.5" height="54.5" as="geometry" />
        </mxCell>
        <mxCell id="1tYCDRSDsCQzgZWJvc7a-114" value="2" style="rounded=1;whiteSpace=wrap;html=1;fillColor=#007CBD;strokeColor=none;fontColor=#FFFFFF;fontStyle=1;fontSize=22;labelBackgroundColor=none;" parent="glTbuXtbrnzx0vPCisSr-2" vertex="1">
          <mxGeometry x="80" y="172" width="40" height="38" as="geometry" />
        </mxCell>
        <mxCell id="1tYCDRSDsCQzgZWJvc7a-118" value="4" style="rounded=1;whiteSpace=wrap;html=1;fillColor=#007CBD;strokeColor=none;fontColor=#FFFFFF;fontStyle=1;fontSize=22;labelBackgroundColor=none;" parent="1tYCDRSDsCQzgZWJvc7a-14" vertex="1">
          <mxGeometry x="130" y="673.75" width="40" height="38" as="geometry" />
        </mxCell>
        <mxCell id="glTbuXtbrnzx0vPCisSr-24" style="edgeStyle=orthogonalEdgeStyle;rounded=0;orthogonalLoop=1;jettySize=auto;html=1;exitX=1;exitY=0.25;exitDx=0;exitDy=0;exitPerimeter=0;" parent="1tYCDRSDsCQzgZWJvc7a-14" source="1tYCDRSDsCQzgZWJvc7a-2" edge="1">
          <mxGeometry relative="1" as="geometry">
            <Array as="points" />
            <mxPoint x="750" y="348.5" as="targetPoint" />
          </mxGeometry>
        </mxCell>
        <mxCell id="glTbuXtbrnzx0vPCisSr-25" style="edgeStyle=orthogonalEdgeStyle;rounded=0;orthogonalLoop=1;jettySize=auto;html=1;exitX=0;exitY=0.75;exitDx=0;exitDy=0;exitPerimeter=0;entryX=1;entryY=0.75;entryDx=0;entryDy=0;entryPerimeter=0;" parent="1tYCDRSDsCQzgZWJvc7a-14" source="dy0-1PoWe1TbCDGHFwGR-39" target="1tYCDRSDsCQzgZWJvc7a-2" edge="1">
          <mxGeometry relative="1" as="geometry">
            <Array as="points">
              <mxPoint x="750" y="371" />
              <mxPoint x="751" y="371" />
              <mxPoint x="751" y="372" />
            </Array>
            <mxPoint x="750.75" y="371.9375" as="sourcePoint" />
          </mxGeometry>
        </mxCell>
        <mxCell id="dy0-1PoWe1TbCDGHFwGR-13" value="S3 (Frontend)" style="sketch=0;points=[[0,0,0],[0.25,0,0],[0.5,0,0],[0.75,0,0],[1,0,0],[0,1,0],[0.25,1,0],[0.5,1,0],[0.75,1,0],[1,1,0],[0,0.25,0],[0,0.5,0],[0,0.75,0],[1,0.25,0],[1,0.5,0],[1,0.75,0]];outlineConnect=0;fontColor=#232F3E;fillColor=#7AA116;strokeColor=#ffffff;dashed=0;verticalLabelPosition=bottom;verticalAlign=top;align=center;html=1;fontSize=12;fontStyle=0;aspect=fixed;shape=mxgraph.aws4.resourceIcon;resIcon=mxgraph.aws4.s3;" parent="1tYCDRSDsCQzgZWJvc7a-14" vertex="1">
          <mxGeometry x="70" y="475.5" width="78" height="78" as="geometry" />
        </mxCell>
        <mxCell id="1tYCDRSDsCQzgZWJvc7a-86" value="CloudWatch" style="sketch=0;points=[[0,0,0],[0.25,0,0],[0.5,0,0],[0.75,0,0],[1,0,0],[0,1,0],[0.25,1,0],[0.5,1,0],[0.75,1,0],[1,1,0],[0,0.25,0],[0,0.5,0],[0,0.75,0],[1,0.25,0],[1,0.5,0],[1,0.75,0]];points=[[0,0,0],[0.25,0,0],[0.5,0,0],[0.75,0,0],[1,0,0],[0,1,0],[0.25,1,0],[0.5,1,0],[0.75,1,0],[1,1,0],[0,0.25,0],[0,0.5,0],[0,0.75,0],[1,0.25,0],[1,0.5,0],[1,0.75,0]];outlineConnect=0;fontColor=#FF6666;fillColor=#E7157B;strokeColor=#ffffff;dashed=0;verticalLabelPosition=bottom;verticalAlign=top;align=center;html=1;fontSize=12;fontStyle=0;aspect=fixed;shape=mxgraph.aws4.resourceIcon;resIcon=mxgraph.aws4.cloudwatch_2;" parent="1tYCDRSDsCQzgZWJvc7a-14" vertex="1">
          <mxGeometry x="530" y="509" width="44.5" height="44.5" as="geometry" />
        </mxCell>
        <mxCell id="dy0-1PoWe1TbCDGHFwGR-46" style="edgeStyle=orthogonalEdgeStyle;rounded=0;orthogonalLoop=1;jettySize=auto;html=1;entryX=0.5;entryY=0;entryDx=0;entryDy=0;entryPerimeter=0;" parent="1tYCDRSDsCQzgZWJvc7a-14" source="1tYCDRSDsCQzgZWJvc7a-2" target="1tYCDRSDsCQzgZWJvc7a-86" edge="1">
          <mxGeometry relative="1" as="geometry" />
        </mxCell>
        <mxCell id="XonzfU6cnXxWhyrc8ULt-7" style="edgeStyle=orthogonalEdgeStyle;rounded=0;orthogonalLoop=1;jettySize=auto;html=1;exitX=0.25;exitY=0;exitDx=0;exitDy=0;exitPerimeter=0;" parent="1tYCDRSDsCQzgZWJvc7a-14" source="1tYCDRSDsCQzgZWJvc7a-2" target="XonzfU6cnXxWhyrc8ULt-4" edge="1">
          <mxGeometry relative="1" as="geometry">
            <Array as="points">
              <mxPoint x="541" y="196" />
            </Array>
          </mxGeometry>
        </mxCell>
        <mxCell id="XonzfU6cnXxWhyrc8ULt-8" style="edgeStyle=orthogonalEdgeStyle;rounded=0;orthogonalLoop=1;jettySize=auto;html=1;entryX=0.75;entryY=0;entryDx=0;entryDy=0;entryPerimeter=0;" parent="1tYCDRSDsCQzgZWJvc7a-14" source="XonzfU6cnXxWhyrc8ULt-4" target="1tYCDRSDsCQzgZWJvc7a-2" edge="1">
          <mxGeometry relative="1" as="geometry" />
        </mxCell>
        <mxCell id="glTbuXtbrnzx0vPCisSr-27" value="Security group" style="fillColor=none;strokeColor=#DD3522;verticalAlign=top;fontStyle=0;fontColor=#DD3522;whiteSpace=wrap;html=1;labelPosition=center;verticalLabelPosition=bottom;align=center;" parent="1tYCDRSDsCQzgZWJvc7a-14" vertex="1">
          <mxGeometry x="190" y="325.5" width="165" height="80" as="geometry" />
        </mxCell>
        <mxCell id="1tYCDRSDsCQzgZWJvc7a-38" value="ALB" style="sketch=0;points=[[0,0,0],[0.25,0,0],[0.5,0,0],[0.75,0,0],[1,0,0],[0,1,0],[0.25,1,0],[0.5,1,0],[0.75,1,0],[1,1,0],[0,0.25,0],[0,0.5,0],[0,0.75,0],[1,0.25,0],[1,0.5,0],[1,0.75,0]];outlineConnect=0;fontColor=#232F3E;fillColor=#ED7100;strokeColor=#ffffff;dashed=0;verticalLabelPosition=bottom;verticalAlign=top;align=center;html=1;fontSize=12;fontStyle=0;aspect=fixed;shape=mxgraph.aws4.resourceIcon;resIcon=mxgraph.aws4.elastic_load_balancing;" parent="1tYCDRSDsCQzgZWJvc7a-14" vertex="1">
          <mxGeometry x="247.5" y="336" width="50" height="50" as="geometry" />
        </mxCell>
        <mxCell id="rJwY-jtqr0xnqbSxwwkC-5" value="Lambda" style="sketch=0;points=[[0,0,0],[0.25,0,0],[0.5,0,0],[0.75,0,0],[1,0,0],[0,1,0],[0.25,1,0],[0.5,1,0],[0.75,1,0],[1,1,0],[0,0.25,0],[0,0.5,0],[0,0.75,0],[1,0.25,0],[1,0.5,0],[1,0.75,0]];outlineConnect=0;fontColor=#232F3E;fillColor=#ED7100;strokeColor=#ffffff;dashed=0;verticalLabelPosition=bottom;verticalAlign=top;align=center;html=1;fontSize=12;fontStyle=0;aspect=fixed;shape=mxgraph.aws4.resourceIcon;resIcon=mxgraph.aws4.lambda;" parent="1tYCDRSDsCQzgZWJvc7a-14" vertex="1">
          <mxGeometry x="744.5" y="605.5" width="55.5" height="55.5" as="geometry" />
        </mxCell>
        <mxCell id="rJwY-jtqr0xnqbSxwwkC-2" value="API Gateway" style="sketch=0;points=[[0,0,0],[0.25,0,0],[0.5,0,0],[0.75,0,0],[1,0,0],[0,1,0],[0.25,1,0],[0.5,1,0],[0.75,1,0],[1,1,0],[0,0.25,0],[0,0.5,0],[0,0.75,0],[1,0.25,0],[1,0.5,0],[1,0.75,0]];outlineConnect=0;fontColor=#232F3E;fillColor=#E7157B;strokeColor=#ffffff;dashed=0;verticalLabelPosition=bottom;verticalAlign=top;align=center;html=1;fontSize=12;fontStyle=0;aspect=fixed;shape=mxgraph.aws4.resourceIcon;resIcon=mxgraph.aws4.api_gateway;" parent="1tYCDRSDsCQzgZWJvc7a-14" vertex="1">
          <mxGeometry x="190" y="625.5" width="55.5" height="55.5" as="geometry" />
        </mxCell>
        <mxCell id="rJwY-jtqr0xnqbSxwwkC-6" style="edgeStyle=orthogonalEdgeStyle;rounded=0;orthogonalLoop=1;jettySize=auto;html=1;" parent="1tYCDRSDsCQzgZWJvc7a-14" source="rJwY-jtqr0xnqbSxwwkC-2" target="rJwY-jtqr0xnqbSxwwkC-5" edge="1">
          <mxGeometry relative="1" as="geometry">
            <Array as="points">
              <mxPoint x="370" y="633" />
              <mxPoint x="370" y="633" />
            </Array>
          </mxGeometry>
        </mxCell>
        <mxCell id="rJwY-jtqr0xnqbSxwwkC-7" value="Cognito" style="sketch=0;points=[[0,0,0],[0.25,0,0],[0.5,0,0],[0.75,0,0],[1,0,0],[0,1,0],[0.25,1,0],[0.5,1,0],[0.75,1,0],[1,1,0],[0,0.25,0],[0,0.5,0],[0,0.75,0],[1,0.25,0],[1,0.5,0],[1,0.75,0]];outlineConnect=0;fontColor=#232F3E;fillColor=#DD344C;strokeColor=#ffffff;dashed=0;verticalLabelPosition=bottom;verticalAlign=top;align=center;html=1;fontSize=12;fontStyle=0;aspect=fixed;shape=mxgraph.aws4.resourceIcon;resIcon=mxgraph.aws4.cognito;" parent="1tYCDRSDsCQzgZWJvc7a-14" vertex="1">
          <mxGeometry x="240" y="509" width="63" height="63" as="geometry" />
        </mxCell>
        <mxCell id="XonzfU6cnXxWhyrc8ULt-16" value="S3 (User Routes Raw Data)" style="sketch=0;points=[[0,0,0],[0.25,0,0],[0.5,0,0],[0.75,0,0],[1,0,0],[0,1,0],[0.25,1,0],[0.5,1,0],[0.75,1,0],[1,1,0],[0,0.25,0],[0,0.5,0],[0,0.75,0],[1,0.25,0],[1,0.5,0],[1,0.75,0]];outlineConnect=0;fontColor=#232F3E;fillColor=#7AA116;strokeColor=#ffffff;dashed=0;verticalLabelPosition=bottom;verticalAlign=top;align=center;html=1;fontSize=12;fontStyle=0;aspect=fixed;shape=mxgraph.aws4.resourceIcon;resIcon=mxgraph.aws4.s3;" parent="1tYCDRSDsCQzgZWJvc7a-14" vertex="1">
          <mxGeometry x="292" y="695.5" width="78" height="78" as="geometry" />
        </mxCell>
        <mxCell id="XonzfU6cnXxWhyrc8ULt-17" value="S3 (User Routes Processed&amp;nbsp;Data&lt;span style=&quot;background-color: initial;&quot;&gt;)&lt;/span&gt;" style="sketch=0;points=[[0,0,0],[0.25,0,0],[0.5,0,0],[0.75,0,0],[1,0,0],[0,1,0],[0.25,1,0],[0.5,1,0],[0.75,1,0],[1,1,0],[0,0.25,0],[0,0.5,0],[0,0.75,0],[1,0.25,0],[1,0.5,0],[1,0.75,0]];outlineConnect=0;fontColor=#232F3E;fillColor=#7AA116;strokeColor=#ffffff;dashed=0;verticalLabelPosition=bottom;verticalAlign=top;align=center;html=1;fontSize=12;fontStyle=0;aspect=fixed;shape=mxgraph.aws4.resourceIcon;resIcon=mxgraph.aws4.s3;" parent="1tYCDRSDsCQzgZWJvc7a-14" vertex="1">
          <mxGeometry x="472" y="695.5" width="78" height="78" as="geometry" />
        </mxCell>
        <mxCell id="XonzfU6cnXxWhyrc8ULt-18" value="S3 (Geography Processed&amp;nbsp;Data)" style="sketch=0;points=[[0,0,0],[0.25,0,0],[0.5,0,0],[0.75,0,0],[1,0,0],[0,1,0],[0.25,1,0],[0.5,1,0],[0.75,1,0],[1,1,0],[0,0.25,0],[0,0.5,0],[0,0.75,0],[1,0.25,0],[1,0.5,0],[1,0.75,0]];outlineConnect=0;fontColor=#232F3E;fillColor=#7AA116;strokeColor=#ffffff;dashed=0;verticalLabelPosition=bottom;verticalAlign=top;align=center;html=1;fontSize=12;fontStyle=0;aspect=fixed;shape=mxgraph.aws4.resourceIcon;resIcon=mxgraph.aws4.s3;" parent="1tYCDRSDsCQzgZWJvc7a-14" vertex="1">
          <mxGeometry x="702" y="695.5" width="78" height="78" as="geometry" />
        </mxCell>
        <mxCell id="XonzfU6cnXxWhyrc8ULt-23" value="S3 (User Pictures Data)" style="sketch=0;points=[[0,0,0],[0.25,0,0],[0.5,0,0],[0.75,0,0],[1,0,0],[0,1,0],[0.25,1,0],[0.5,1,0],[0.75,1,0],[1,1,0],[0,0.25,0],[0,0.5,0],[0,0.75,0],[1,0.25,0],[1,0.5,0],[1,0.75,0]];outlineConnect=0;fontColor=#232F3E;fillColor=#7AA116;strokeColor=#ffffff;dashed=0;verticalLabelPosition=bottom;verticalAlign=top;align=center;html=1;fontSize=12;fontStyle=0;aspect=fixed;shape=mxgraph.aws4.resourceIcon;resIcon=mxgraph.aws4.s3;" parent="1tYCDRSDsCQzgZWJvc7a-14" vertex="1">
          <mxGeometry x="882" y="695.5" width="78" height="78" as="geometry" />
        </mxCell>
        <mxCell id="XonzfU6cnXxWhyrc8ULt-20" style="edgeStyle=orthogonalEdgeStyle;rounded=0;orthogonalLoop=1;jettySize=auto;html=1;" parent="1tYCDRSDsCQzgZWJvc7a-14" source="1tYCDRSDsCQzgZWJvc7a-2" target="XonzfU6cnXxWhyrc8ULt-16" edge="1">
          <mxGeometry relative="1" as="geometry">
            <Array as="points">
              <mxPoint x="553" y="476" />
              <mxPoint x="320" y="476" />
            </Array>
          </mxGeometry>
        </mxCell>
        <mxCell id="XonzfU6cnXxWhyrc8ULt-22" style="edgeStyle=orthogonalEdgeStyle;rounded=0;orthogonalLoop=1;jettySize=auto;html=1;" parent="1tYCDRSDsCQzgZWJvc7a-14" source="XonzfU6cnXxWhyrc8ULt-18" target="XonzfU6cnXxWhyrc8ULt-4" edge="1">
          <mxGeometry relative="1" as="geometry">
            <Array as="points">
              <mxPoint x="729" y="476" />
              <mxPoint x="890" y="476" />
              <mxPoint x="890" y="203" />
            </Array>
            <mxPoint x="575" y="383.5" as="targetPoint" />
          </mxGeometry>
        </mxCell>
        <mxCell id="rJwY-jtqr0xnqbSxwwkC-13" style="edgeStyle=orthogonalEdgeStyle;rounded=0;orthogonalLoop=1;jettySize=auto;html=1;entryX=0.5;entryY=0;entryDx=0;entryDy=0;entryPerimeter=0;" parent="1tYCDRSDsCQzgZWJvc7a-14" source="1tYCDRSDsCQzgZWJvc7a-38" target="rJwY-jtqr0xnqbSxwwkC-7" edge="1">
          <mxGeometry relative="1" as="geometry" />
        </mxCell>
        <mxCell id="rJwY-jtqr0xnqbSxwwkC-14" style="edgeStyle=orthogonalEdgeStyle;rounded=0;orthogonalLoop=1;jettySize=auto;html=1;entryX=0;entryY=0.5;entryDx=0;entryDy=0;entryPerimeter=0;" parent="1tYCDRSDsCQzgZWJvc7a-14" source="rJwY-jtqr0xnqbSxwwkC-2" target="rJwY-jtqr0xnqbSxwwkC-7" edge="1">
          <mxGeometry relative="1" as="geometry" />
        </mxCell>
        <mxCell id="rJwY-jtqr0xnqbSxwwkC-15" style="edgeStyle=orthogonalEdgeStyle;rounded=0;orthogonalLoop=1;jettySize=auto;html=1;entryX=0;entryY=0;entryDx=0;entryDy=0;entryPerimeter=0;" parent="1tYCDRSDsCQzgZWJvc7a-14" source="rJwY-jtqr0xnqbSxwwkC-5" target="XonzfU6cnXxWhyrc8ULt-23" edge="1">
          <mxGeometry relative="1" as="geometry">
            <mxPoint x="890" y="695.5" as="targetPoint" />
            <Array as="points">
              <mxPoint x="882" y="633" />
            </Array>
          </mxGeometry>
        </mxCell>
        <mxCell id="rJwY-jtqr0xnqbSxwwkC-17" style="edgeStyle=orthogonalEdgeStyle;rounded=0;orthogonalLoop=1;jettySize=auto;html=1;entryX=0.5;entryY=1;entryDx=0;entryDy=0;entryPerimeter=0;" parent="1tYCDRSDsCQzgZWJvc7a-14" source="rJwY-jtqr0xnqbSxwwkC-5" target="dy0-1PoWe1TbCDGHFwGR-39" edge="1">
          <mxGeometry relative="1" as="geometry" />
        </mxCell>
        <mxCell id="rJwY-jtqr0xnqbSxwwkC-18" style="edgeStyle=orthogonalEdgeStyle;rounded=0;orthogonalLoop=1;jettySize=auto;html=1;entryX=1;entryY=1;entryDx=0;entryDy=0;entryPerimeter=0;" parent="1tYCDRSDsCQzgZWJvc7a-14" source="XonzfU6cnXxWhyrc8ULt-23" target="rJwY-jtqr0xnqbSxwwkC-5" edge="1">
          <mxGeometry relative="1" as="geometry" />
        </mxCell>
        <mxCell id="xALoKViy8auc1gzHxUwG-1" value="CLI" style="sketch=0;points=[[0,0,0],[0.25,0,0],[0.5,0,0],[0.75,0,0],[1,0,0],[0,1,0],[0.25,1,0],[0.5,1,0],[0.75,1,0],[1,1,0],[0,0.25,0],[0,0.5,0],[0,0.75,0],[1,0.25,0],[1,0.5,0],[1,0.75,0]];outlineConnect=0;fontColor=#232F3E;fillColor=#C925D1;strokeColor=#ffffff;dashed=0;verticalLabelPosition=bottom;verticalAlign=top;align=center;html=1;fontSize=12;fontStyle=0;aspect=fixed;shape=mxgraph.aws4.resourceIcon;resIcon=mxgraph.aws4.command_line_interface;" parent="1tYCDRSDsCQzgZWJvc7a-14" vertex="1">
          <mxGeometry x="15.5" y="665.5" width="54.5" height="54.5" as="geometry" />
        </mxCell>
        <mxCell id="xALoKViy8auc1gzHxUwG-8" style="edgeStyle=none;curved=1;rounded=0;orthogonalLoop=1;jettySize=auto;html=1;entryX=0;entryY=1;entryDx=0;entryDy=0;entryPerimeter=0;fontSize=12;startSize=8;endSize=8;" parent="1tYCDRSDsCQzgZWJvc7a-14" source="xALoKViy8auc1gzHxUwG-1" target="dy0-1PoWe1TbCDGHFwGR-13" edge="1">
          <mxGeometry relative="1" as="geometry" />
        </mxCell>
        <mxCell id="1tYCDRSDsCQzgZWJvc7a-39" value="Security group" style="fillColor=none;strokeColor=#DD3522;verticalAlign=top;fontStyle=0;fontColor=#DD3522;whiteSpace=wrap;html=1;" parent="1tYCDRSDsCQzgZWJvc7a-14" vertex="1">
          <mxGeometry x="477.75" y="286.5" width="150" height="130" as="geometry" />
        </mxCell>
        <mxCell id="1tYCDRSDsCQzgZWJvc7a-2" value="ECS" style="sketch=0;points=[[0,0,0],[0.25,0,0],[0.5,0,0],[0.75,0,0],[1,0,0],[0,1,0],[0.25,1,0],[0.5,1,0],[0.75,1,0],[1,1,0],[0,0.25,0],[0,0.5,0],[0,0.75,0],[1,0.25,0],[1,0.5,0],[1,0.75,0]];outlineConnect=0;fontColor=#232F3E;fillColor=#ED7100;strokeColor=#ffffff;dashed=0;verticalLabelPosition=bottom;verticalAlign=top;align=center;html=1;fontSize=12;fontStyle=0;aspect=fixed;shape=mxgraph.aws4.resourceIcon;resIcon=mxgraph.aws4.ecs;" parent="1tYCDRSDsCQzgZWJvc7a-14" vertex="1">
          <mxGeometry x="530" y="338.25" width="45.5" height="45.5" as="geometry" />
        </mxCell>
        <mxCell id="1tYCDRSDsCQzgZWJvc7a-112" value="Auto Scailing" style="sketch=0;outlineConnect=0;fontColor=#232F3E;gradientColor=none;fillColor=#ED7100;strokeColor=none;dashed=0;verticalLabelPosition=bottom;verticalAlign=top;align=center;html=1;fontSize=12;fontStyle=0;aspect=fixed;pointerEvents=1;shape=mxgraph.aws4.auto_scaling2;" parent="1tYCDRSDsCQzgZWJvc7a-14" vertex="1">
          <mxGeometry x="600" y="384.5" width="38.5" height="38.5" as="geometry" />
        </mxCell>
        <mxCell id="xALoKViy8auc1gzHxUwG-12" style="edgeStyle=none;curved=1;rounded=0;orthogonalLoop=1;jettySize=auto;html=1;entryX=0;entryY=0.5;entryDx=0;entryDy=0;entryPerimeter=0;fontSize=12;startSize=8;endSize=8;" parent="1tYCDRSDsCQzgZWJvc7a-14" source="1tYCDRSDsCQzgZWJvc7a-38" target="1tYCDRSDsCQzgZWJvc7a-2" edge="1">
          <mxGeometry relative="1" as="geometry" />
        </mxCell>
        <mxCell id="QbFxGdYQxjv7kjrmQAyl-2" value="" style="sketch=0;points=[[0,0,0],[0.25,0,0],[0.5,0,0],[0.75,0,0],[1,0,0],[0,1,0],[0.25,1,0],[0.5,1,0],[0.75,1,0],[1,1,0],[0,0.25,0],[0,0.5,0],[0,0.75,0],[1,0.25,0],[1,0.5,0],[1,0.75,0]];points=[[0,0,0],[0.25,0,0],[0.5,0,0],[0.75,0,0],[1,0,0],[0,1,0],[0.25,1,0],[0.5,1,0],[0.75,1,0],[1,1,0],[0,0.25,0],[0,0.5,0],[0,0.75,0],[1,0.25,0],[1,0.5,0],[1,0.75,0]];outlineConnect=0;fontColor=#232F3E;fillColor=#E7157B;strokeColor=#ffffff;dashed=0;verticalLabelPosition=bottom;verticalAlign=top;align=center;html=1;fontSize=12;fontStyle=0;aspect=fixed;shape=mxgraph.aws4.resourceIcon;resIcon=mxgraph.aws4.cloudformation;" vertex="1" parent="1tYCDRSDsCQzgZWJvc7a-14">
          <mxGeometry x="940" width="36.98" height="36.98" as="geometry" />
        </mxCell>
        <mxCell id="QbFxGdYQxjv7kjrmQAyl-3" value="5" style="rounded=1;whiteSpace=wrap;html=1;fillColor=#007CBD;strokeColor=none;fontColor=#FFFFFF;fontStyle=1;fontSize=22;labelBackgroundColor=none;" vertex="1" parent="1tYCDRSDsCQzgZWJvc7a-14">
          <mxGeometry x="205" y="475.5" width="40" height="38" as="geometry" />
        </mxCell>
        <mxCell id="1tYCDRSDsCQzgZWJvc7a-32" value="Backend CI/CD" style="fillColor=none;strokeColor=#c925d1;dashed=1;verticalAlign=top;fontStyle=0;fontColor=#5A6C86;whiteSpace=wrap;html=1;" parent="1tYCDRSDsCQzgZWJvc7a-12" vertex="1">
          <mxGeometry x="330" y="22" width="690" height="112.5" as="geometry" />
        </mxCell>
        <mxCell id="1tYCDRSDsCQzgZWJvc7a-1" value="ECR" style="sketch=0;points=[[0,0,0],[0.25,0,0],[0.5,0,0],[0.75,0,0],[1,0,0],[0,1,0],[0.25,1,0],[0.5,1,0],[0.75,1,0],[1,1,0],[0,0.25,0],[0,0.5,0],[0,0.75,0],[1,0.25,0],[1,0.5,0],[1,0.75,0]];outlineConnect=0;fontColor=#232F3E;fillColor=#ED7100;strokeColor=#ffffff;dashed=0;verticalLabelPosition=bottom;verticalAlign=top;align=center;html=1;fontSize=12;fontStyle=0;aspect=fixed;shape=mxgraph.aws4.resourceIcon;resIcon=mxgraph.aws4.ecr;" parent="1tYCDRSDsCQzgZWJvc7a-12" vertex="1">
          <mxGeometry x="614" y="155.5" width="48" height="48" as="geometry" />
        </mxCell>
        <mxCell id="1tYCDRSDsCQzgZWJvc7a-42" value="Image push" style="edgeStyle=orthogonalEdgeStyle;rounded=0;orthogonalLoop=1;jettySize=auto;html=1;entryX=0;entryY=0;entryDx=0;entryDy=0;entryPerimeter=0;labelPosition=left;verticalLabelPosition=bottom;align=right;verticalAlign=top;exitX=0.5;exitY=1;exitDx=0;exitDy=0;exitPerimeter=0;" parent="1tYCDRSDsCQzgZWJvc7a-12" target="1tYCDRSDsCQzgZWJvc7a-1" edge="1">
          <mxGeometry relative="1" as="geometry">
            <mxPoint x="571.5" y="104.75" as="sourcePoint" />
            <Array as="points">
              <mxPoint x="572" y="156" />
              <mxPoint x="614" y="156" />
            </Array>
          </mxGeometry>
        </mxCell>
        <mxCell id="1tYCDRSDsCQzgZWJvc7a-43" value="Image pull" style="edgeStyle=orthogonalEdgeStyle;rounded=0;orthogonalLoop=1;jettySize=auto;html=1;labelPosition=right;verticalLabelPosition=bottom;align=left;verticalAlign=top;entryX=0.5;entryY=1;entryDx=0;entryDy=0;entryPerimeter=0;" parent="1tYCDRSDsCQzgZWJvc7a-12" target="dy0-1PoWe1TbCDGHFwGR-6" edge="1">
          <mxGeometry relative="1" as="geometry">
            <mxPoint x="660" y="155.5" as="sourcePoint" />
            <mxPoint x="768" y="106.5" as="targetPoint" />
            <Array as="points">
              <mxPoint x="720" y="156" />
              <mxPoint x="720" y="110" />
              <mxPoint x="719" y="110" />
            </Array>
          </mxGeometry>
        </mxCell>
        <mxCell id="1tYCDRSDsCQzgZWJvc7a-47" style="edgeStyle=orthogonalEdgeStyle;rounded=0;orthogonalLoop=1;jettySize=auto;html=1;exitX=1;exitY=0.5;exitDx=0;exitDy=0;exitPerimeter=0;entryX=0.5;entryY=0;entryDx=0;entryDy=0;entryPerimeter=0;" parent="1tYCDRSDsCQzgZWJvc7a-12" source="dy0-1PoWe1TbCDGHFwGR-6" target="1tYCDRSDsCQzgZWJvc7a-2" edge="1">
          <mxGeometry relative="1" as="geometry">
            <mxPoint x="795.19" y="78.25" as="sourcePoint" />
            <Array as="points">
              <mxPoint x="893" y="78" />
            </Array>
          </mxGeometry>
        </mxCell>
        <mxCell id="dy0-1PoWe1TbCDGHFwGR-40" style="edgeStyle=orthogonalEdgeStyle;rounded=0;orthogonalLoop=1;jettySize=auto;html=1;" parent="1tYCDRSDsCQzgZWJvc7a-12" source="1tYCDRSDsCQzgZWJvc7a-29" target="1tYCDRSDsCQzgZWJvc7a-99" edge="1">
          <mxGeometry relative="1" as="geometry" />
        </mxCell>
        <mxCell id="1tYCDRSDsCQzgZWJvc7a-29" value="CloudFront" style="sketch=0;points=[[0,0,0],[0.25,0,0],[0.5,0,0],[0.75,0,0],[1,0,0],[0,1,0],[0.25,1,0],[0.5,1,0],[0.75,1,0],[1,1,0],[0,0.25,0],[0,0.5,0],[0,0.75,0],[1,0.25,0],[1,0.5,0],[1,0.75,0]];outlineConnect=0;fontColor=#232F3E;fillColor=#8C4FFF;strokeColor=#ffffff;dashed=0;verticalLabelPosition=top;verticalAlign=bottom;align=center;html=1;fontSize=12;fontStyle=0;aspect=fixed;shape=mxgraph.aws4.resourceIcon;resIcon=mxgraph.aws4.cloudfront;labelPosition=center;" parent="1tYCDRSDsCQzgZWJvc7a-12" vertex="1">
          <mxGeometry x="250.5" y="551.25" width="59.5" height="59.5" as="geometry" />
        </mxCell>
        <mxCell id="1tYCDRSDsCQzgZWJvc7a-61" value="Github" style="dashed=0;outlineConnect=0;html=1;align=center;labelPosition=center;verticalLabelPosition=top;verticalAlign=bottom;shape=mxgraph.weblogos.github" parent="1tYCDRSDsCQzgZWJvc7a-12" vertex="1">
          <mxGeometry x="400" y="48" width="60.5" height="60.5" as="geometry" />
        </mxCell>
        <mxCell id="dy0-1PoWe1TbCDGHFwGR-6" value="Code Deploy&lt;br&gt;on ECS" style="sketch=0;points=[[0,0,0],[0.25,0,0],[0.5,0,0],[0.75,0,0],[1,0,0],[0,1,0],[0.25,1,0],[0.5,1,0],[0.75,1,0],[1,1,0],[0,0.25,0],[0,0.5,0],[0,0.75,0],[1,0.25,0],[1,0.5,0],[1,0.75,0]];outlineConnect=0;fontColor=#232F3E;fillColor=#C925D1;strokeColor=#ffffff;dashed=0;verticalLabelPosition=bottom;verticalAlign=top;align=center;html=1;fontSize=12;fontStyle=0;aspect=fixed;shape=mxgraph.aws4.resourceIcon;resIcon=mxgraph.aws4.codedeploy;" parent="1tYCDRSDsCQzgZWJvc7a-12" vertex="1">
          <mxGeometry x="690" y="49.12" width="58.25" height="58.25" as="geometry" />
        </mxCell>
        <mxCell id="dy0-1PoWe1TbCDGHFwGR-8" style="edgeStyle=orthogonalEdgeStyle;rounded=0;orthogonalLoop=1;jettySize=auto;html=1;entryX=0;entryY=0.5;entryDx=0;entryDy=0;entryPerimeter=0;" parent="1tYCDRSDsCQzgZWJvc7a-12" source="1tYCDRSDsCQzgZWJvc7a-61" edge="1">
          <mxGeometry relative="1" as="geometry">
            <mxPoint x="545" y="78.25" as="targetPoint" />
          </mxGeometry>
        </mxCell>
        <mxCell id="dy0-1PoWe1TbCDGHFwGR-9" style="edgeStyle=orthogonalEdgeStyle;rounded=0;orthogonalLoop=1;jettySize=auto;html=1;exitX=1;exitY=0.5;exitDx=0;exitDy=0;exitPerimeter=0;entryX=0;entryY=0.5;entryDx=0;entryDy=0;entryPerimeter=0;" parent="1tYCDRSDsCQzgZWJvc7a-12" target="dy0-1PoWe1TbCDGHFwGR-6" edge="1">
          <mxGeometry relative="1" as="geometry">
            <mxPoint x="598" y="78.25" as="sourcePoint" />
          </mxGeometry>
        </mxCell>
        <mxCell id="dy0-1PoWe1TbCDGHFwGR-10" value="" style="edgeStyle=orthogonalEdgeStyle;rounded=0;orthogonalLoop=1;jettySize=auto;html=1;entryX=0;entryY=0.5;entryDx=0;entryDy=0;entryPerimeter=0;" parent="1tYCDRSDsCQzgZWJvc7a-12" source="1tYCDRSDsCQzgZWJvc7a-29" target="1tYCDRSDsCQzgZWJvc7a-38" edge="1">
          <mxGeometry relative="1" as="geometry">
            <mxPoint x="350" y="764.5" as="sourcePoint" />
            <mxPoint x="570" y="581.5" as="targetPoint" />
            <Array as="points" />
          </mxGeometry>
        </mxCell>
        <mxCell id="dy0-1PoWe1TbCDGHFwGR-14" value="cache" style="edgeStyle=orthogonalEdgeStyle;rounded=0;orthogonalLoop=1;jettySize=auto;html=1;entryX=0.5;entryY=1;entryDx=0;entryDy=0;entryPerimeter=0;" parent="1tYCDRSDsCQzgZWJvc7a-12" source="dy0-1PoWe1TbCDGHFwGR-13" target="1tYCDRSDsCQzgZWJvc7a-29" edge="1">
          <mxGeometry relative="1" as="geometry" />
        </mxCell>
        <mxCell id="dy0-1PoWe1TbCDGHFwGR-38" value="" style="edgeStyle=orthogonalEdgeStyle;rounded=0;orthogonalLoop=1;jettySize=auto;html=1;entryX=0;entryY=0.5;entryDx=0;entryDy=0;" parent="1tYCDRSDsCQzgZWJvc7a-12" source="dy0-1PoWe1TbCDGHFwGR-6" target="xALoKViy8auc1gzHxUwG-11" edge="1">
          <mxGeometry relative="1" as="geometry">
            <mxPoint x="788" y="262.5" as="sourcePoint" />
            <mxPoint x="930" y="78.23999999999978" as="targetPoint" />
          </mxGeometry>
        </mxCell>
        <mxCell id="1tYCDRSDsCQzgZWJvc7a-99" value="Log Buckets" style="sketch=0;outlineConnect=0;fontColor=#ff0000;gradientColor=none;fillColor=#7AA116;strokeColor=none;dashed=0;verticalLabelPosition=bottom;verticalAlign=top;align=center;html=1;fontSize=12;fontStyle=0;aspect=fixed;pointerEvents=1;shape=mxgraph.aws4.bucket;" parent="1tYCDRSDsCQzgZWJvc7a-12" vertex="1">
          <mxGeometry x="243.38" y="395.5" width="75" height="78" as="geometry" />
        </mxCell>
        <mxCell id="dy0-1PoWe1TbCDGHFwGR-41" style="edgeStyle=orthogonalEdgeStyle;rounded=0;orthogonalLoop=1;jettySize=auto;html=1;" parent="1tYCDRSDsCQzgZWJvc7a-12" source="1tYCDRSDsCQzgZWJvc7a-38" target="1tYCDRSDsCQzgZWJvc7a-99" edge="1">
          <mxGeometry relative="1" as="geometry">
            <Array as="points">
              <mxPoint x="595" y="446" />
            </Array>
          </mxGeometry>
        </mxCell>
        <mxCell id="XonzfU6cnXxWhyrc8ULt-1" value="Github Actions" style="dashed=0;outlineConnect=0;html=1;align=center;labelPosition=center;verticalLabelPosition=top;verticalAlign=bottom;shape=mxgraph.weblogos.github" parent="1tYCDRSDsCQzgZWJvc7a-12" vertex="1">
          <mxGeometry x="545" y="48" width="60.5" height="60.5" as="geometry" />
        </mxCell>
        <mxCell id="XonzfU6cnXxWhyrc8ULt-15" style="edgeStyle=orthogonalEdgeStyle;rounded=0;orthogonalLoop=1;jettySize=auto;html=1;entryX=0.5;entryY=0;entryDx=0;entryDy=0;" parent="1tYCDRSDsCQzgZWJvc7a-12" source="XonzfU6cnXxWhyrc8ULt-9" target="1tYCDRSDsCQzgZWJvc7a-49" edge="1">
          <mxGeometry relative="1" as="geometry" />
        </mxCell>
        <mxCell id="XonzfU6cnXxWhyrc8ULt-9" value="Session Manager&lt;div&gt;&lt;br&gt;&lt;/div&gt;" style="sketch=0;outlineConnect=0;fontColor=#232F3E;gradientColor=none;fillColor=#E7157B;strokeColor=none;dashed=0;verticalLabelPosition=bottom;verticalAlign=top;align=center;html=1;fontSize=12;fontStyle=0;aspect=fixed;pointerEvents=1;shape=mxgraph.aws4.systems_manager_session_manager;" parent="1tYCDRSDsCQzgZWJvc7a-12" vertex="1">
          <mxGeometry x="131.75137614678897" y="285.4993119266055" width="78" height="78" as="geometry" />
        </mxCell>
        <mxCell id="XonzfU6cnXxWhyrc8ULt-10" style="edgeStyle=orthogonalEdgeStyle;rounded=0;orthogonalLoop=1;jettySize=auto;html=1;entryX=0;entryY=0;entryDx=0;entryDy=0;entryPerimeter=0;" parent="1tYCDRSDsCQzgZWJvc7a-12" source="XonzfU6cnXxWhyrc8ULt-9" target="1tYCDRSDsCQzgZWJvc7a-2" edge="1">
          <mxGeometry relative="1" as="geometry" />
        </mxCell>
        <mxCell id="rJwY-jtqr0xnqbSxwwkC-3" style="edgeStyle=orthogonalEdgeStyle;rounded=0;orthogonalLoop=1;jettySize=auto;html=1;entryX=0;entryY=0.5;entryDx=0;entryDy=0;entryPerimeter=0;" parent="1tYCDRSDsCQzgZWJvc7a-12" source="1tYCDRSDsCQzgZWJvc7a-29" target="rJwY-jtqr0xnqbSxwwkC-2" edge="1">
          <mxGeometry relative="1" as="geometry">
            <Array as="points">
              <mxPoint x="310" y="873" />
            </Array>
          </mxGeometry>
        </mxCell>
        <mxCell id="xALoKViy8auc1gzHxUwG-5" value="Discord" style="shape=image;verticalLabelPosition=bottom;labelBackgroundColor=default;verticalAlign=top;aspect=fixed;imageAspect=0;image=https://seeklogo.com/images/D/discord-color-logo-E5E6DFEF80-seeklogo.com.png;" parent="1tYCDRSDsCQzgZWJvc7a-12" vertex="1">
          <mxGeometry x="358" y="1093.75" width="54.96" height="42.5" as="geometry" />
        </mxCell>
        <mxCell id="dy0-1PoWe1TbCDGHFwGR-29" value="cache invalidation" style="edgeStyle=orthogonalEdgeStyle;rounded=0;orthogonalLoop=1;jettySize=auto;html=1;entryX=0;entryY=1;entryDx=0;entryDy=0;entryPerimeter=0;exitX=0.5;exitY=0;exitDx=0;exitDy=0;exitPerimeter=0;" parent="1tYCDRSDsCQzgZWJvc7a-12" source="xALoKViy8auc1gzHxUwG-1" target="1tYCDRSDsCQzgZWJvc7a-29" edge="1">
          <mxGeometry relative="1" as="geometry" />
        </mxCell>
        <mxCell id="xALoKViy8auc1gzHxUwG-9" value="" style="verticalLabelPosition=bottom;html=1;verticalAlign=top;align=center;strokeColor=none;fillColor=#00BEF2;shape=mxgraph.azure.git_repository;" parent="1tYCDRSDsCQzgZWJvc7a-12" vertex="1">
          <mxGeometry x="20" y="1038.5" width="35.5" height="35.5" as="geometry" />
        </mxCell>
        <mxCell id="xALoKViy8auc1gzHxUwG-10" value="" style="verticalLabelPosition=bottom;html=1;verticalAlign=top;align=center;strokeColor=none;fillColor=#00BEF2;shape=mxgraph.azure.git_repository;" parent="1tYCDRSDsCQzgZWJvc7a-12" vertex="1">
          <mxGeometry x="330" y="22" width="35.5" height="35.5" as="geometry" />
        </mxCell>
        <mxCell id="xALoKViy8auc1gzHxUwG-11" value="Discord" style="shape=image;verticalLabelPosition=bottom;labelBackgroundColor=default;verticalAlign=top;aspect=fixed;imageAspect=0;image=https://seeklogo.com/images/D/discord-color-logo-E5E6DFEF80-seeklogo.com.png;" parent="1tYCDRSDsCQzgZWJvc7a-12" vertex="1">
          <mxGeometry x="930" y="56.99" width="54.96" height="42.5" as="geometry" />
        </mxCell>
        <mxCell id="QbFxGdYQxjv7kjrmQAyl-1" value="1" style="rounded=1;whiteSpace=wrap;html=1;fillColor=#007CBD;strokeColor=none;fontColor=#FFFFFF;fontStyle=1;fontSize=22;labelBackgroundColor=none;" vertex="1" parent="1tYCDRSDsCQzgZWJvc7a-12">
          <mxGeometry x="1276.98" y="175.5" width="40" height="38" as="geometry" />
        </mxCell>
        <mxCell id="glTbuXtbrnzx0vPCisSr-16" value="User" style="sketch=0;outlineConnect=0;fontColor=#232F3E;gradientColor=none;fillColor=#232F3D;strokeColor=none;dashed=0;verticalLabelPosition=top;verticalAlign=bottom;align=center;html=1;fontSize=12;fontStyle=0;aspect=fixed;pointerEvents=1;shape=mxgraph.aws4.user;labelPosition=center;" parent="1" vertex="1">
          <mxGeometry x="-120" y="727.25" width="78" height="78" as="geometry" />
        </mxCell>
        <mxCell id="1tYCDRSDsCQzgZWJvc7a-75" value="Dev" style="sketch=0;outlineConnect=0;fontColor=#232F3E;gradientColor=none;fillColor=#232F3D;strokeColor=none;dashed=0;verticalLabelPosition=bottom;verticalAlign=top;align=center;html=1;fontSize=12;fontStyle=0;aspect=fixed;pointerEvents=1;shape=mxgraph.aws4.user;" parent="1" vertex="1">
          <mxGeometry x="-120" y="470" width="78" height="78" as="geometry" />
        </mxCell>
        <mxCell id="1tYCDRSDsCQzgZWJvc7a-88" style="edgeStyle=orthogonalEdgeStyle;rounded=0;orthogonalLoop=1;jettySize=auto;html=1;entryX=0;entryY=0.5;entryDx=0;entryDy=0;entryPerimeter=0;" parent="1" source="1tYCDRSDsCQzgZWJvc7a-75" target="XonzfU6cnXxWhyrc8ULt-9" edge="1">
          <mxGeometry relative="1" as="geometry">
            <mxPoint x="350" y="571" as="sourcePoint" />
            <mxPoint x="660.001376146789" y="570.9993119266055" as="targetPoint" />
          </mxGeometry>
        </mxCell>
        <mxCell id="1tYCDRSDsCQzgZWJvc7a-60" value="" style="edgeStyle=orthogonalEdgeStyle;rounded=0;orthogonalLoop=1;jettySize=auto;html=1;entryX=0;entryY=0.5;entryDx=0;entryDy=0;entryPerimeter=0;" parent="1" source="glTbuXtbrnzx0vPCisSr-16" target="1tYCDRSDsCQzgZWJvc7a-29" edge="1">
          <mxGeometry relative="1" as="geometry">
            <mxPoint x="146" y="766.2500000000002" as="sourcePoint" />
            <mxPoint x="583.5" y="953" as="targetPoint" />
          </mxGeometry>
        </mxCell>
        <mxCell id="XonzfU6cnXxWhyrc8ULt-28" style="edgeStyle=orthogonalEdgeStyle;rounded=0;orthogonalLoop=1;jettySize=auto;html=1;" parent="1" source="XonzfU6cnXxWhyrc8ULt-16" target="XonzfU6cnXxWhyrc8ULt-29" edge="1">
          <mxGeometry relative="1" as="geometry">
            <mxPoint x="890" y="1350" as="targetPoint" />
            <Array as="points">
              <mxPoint x="699" y="1350" />
            </Array>
          </mxGeometry>
        </mxCell>
        <mxCell id="XonzfU6cnXxWhyrc8ULt-30" style="edgeStyle=orthogonalEdgeStyle;rounded=0;orthogonalLoop=1;jettySize=auto;html=1;" parent="1" source="XonzfU6cnXxWhyrc8ULt-29" target="XonzfU6cnXxWhyrc8ULt-17" edge="1">
          <mxGeometry relative="1" as="geometry">
            <Array as="points">
              <mxPoint x="998" y="1275" />
            </Array>
          </mxGeometry>
        </mxCell>
        <mxCell id="XonzfU6cnXxWhyrc8ULt-31" style="edgeStyle=orthogonalEdgeStyle;rounded=0;orthogonalLoop=1;jettySize=auto;html=1;exitX=0.491;exitY=-0.015;exitDx=0;exitDy=0;exitPerimeter=0;" parent="1" source="XonzfU6cnXxWhyrc8ULt-29" target="XonzfU6cnXxWhyrc8ULt-18" edge="1">
          <mxGeometry relative="1" as="geometry">
            <Array as="points">
              <mxPoint x="997" y="1275" />
            </Array>
          </mxGeometry>
        </mxCell>
        <mxCell id="XonzfU6cnXxWhyrc8ULt-29" value="Data&amp;nbsp;Analytics Server&amp;nbsp;" style="image;points=[];aspect=fixed;html=1;align=center;shadow=0;dashed=0;image=img/lib/allied_telesis/computer_and_terminals/Personal_Computer_with_Server.svg;" parent="1" vertex="1">
          <mxGeometry x="940" y="1450" width="116" height="116" as="geometry" />
        </mxCell>
        <mxCell id="XonzfU6cnXxWhyrc8ULt-32" value="&lt;span style=&quot;color: rgb(35, 47, 62); background-color: rgb(251, 251, 251);&quot;&gt;Geography Raw Data)&lt;/span&gt;" style="html=1;verticalLabelPosition=bottom;align=center;labelBackgroundColor=#ffffff;verticalAlign=top;strokeWidth=2;strokeColor=#0080F0;shadow=0;dashed=0;shape=mxgraph.ios7.icons.data;" parent="1" vertex="1">
          <mxGeometry x="1190" y="1481.5" width="43.71" height="53" as="geometry" />
        </mxCell>
        <mxCell id="XonzfU6cnXxWhyrc8ULt-33" style="edgeStyle=orthogonalEdgeStyle;rounded=0;orthogonalLoop=1;jettySize=auto;html=1;entryX=0.983;entryY=0.505;entryDx=0;entryDy=0;entryPerimeter=0;" parent="1" source="XonzfU6cnXxWhyrc8ULt-32" target="XonzfU6cnXxWhyrc8ULt-29" edge="1">
          <mxGeometry relative="1" as="geometry" />
        </mxCell>
        <mxCell id="XonzfU6cnXxWhyrc8ULt-35" style="edgeStyle=orthogonalEdgeStyle;rounded=0;orthogonalLoop=1;jettySize=auto;html=1;" parent="1" source="XonzfU6cnXxWhyrc8ULt-34" target="XonzfU6cnXxWhyrc8ULt-29" edge="1">
          <mxGeometry relative="1" as="geometry" />
        </mxCell>
        <mxCell id="XonzfU6cnXxWhyrc8ULt-34" value="Data" style="sketch=0;outlineConnect=0;fontColor=#232F3E;gradientColor=none;fillColor=#232F3D;strokeColor=none;dashed=0;verticalLabelPosition=bottom;verticalAlign=top;align=center;html=1;fontSize=12;fontStyle=0;aspect=fixed;pointerEvents=1;shape=mxgraph.aws4.user;labelPosition=center;" parent="1" vertex="1">
          <mxGeometry x="959" y="1636" width="78" height="78" as="geometry" />
        </mxCell>
        <mxCell id="dy0-1PoWe1TbCDGHFwGR-16" value="Github" style="dashed=0;outlineConnect=0;html=1;align=center;labelPosition=center;verticalLabelPosition=top;verticalAlign=bottom;shape=mxgraph.weblogos.github" parent="1" vertex="1">
          <mxGeometry x="100" y="1269.25" width="60.5" height="60.5" as="geometry" />
        </mxCell>
        <mxCell id="dy0-1PoWe1TbCDGHFwGR-28" value="Webhook" style="edgeStyle=orthogonalEdgeStyle;rounded=0;orthogonalLoop=1;jettySize=auto;html=1;entryX=0;entryY=0.5;entryDx=0;entryDy=0;" parent="1" source="XonzfU6cnXxWhyrc8ULt-2" target="xALoKViy8auc1gzHxUwG-5" edge="1">
          <mxGeometry relative="1" as="geometry">
            <mxPoint x="350.00000000000045" y="1292.6428571428573" as="sourcePoint" />
          </mxGeometry>
        </mxCell>
        <mxCell id="dy0-1PoWe1TbCDGHFwGR-20" style="edgeStyle=orthogonalEdgeStyle;rounded=0;orthogonalLoop=1;jettySize=auto;html=1;" parent="1" source="dy0-1PoWe1TbCDGHFwGR-16" target="XonzfU6cnXxWhyrc8ULt-2" edge="1">
          <mxGeometry relative="1" as="geometry">
            <mxPoint x="200" y="1291.75" as="targetPoint" />
          </mxGeometry>
        </mxCell>
        <mxCell id="dy0-1PoWe1TbCDGHFwGR-21" style="edgeStyle=orthogonalEdgeStyle;rounded=0;orthogonalLoop=1;jettySize=auto;html=1;entryX=0;entryY=0.5;entryDx=0;entryDy=0;entryPerimeter=0;" parent="1" edge="1">
          <mxGeometry relative="1" as="geometry">
            <mxPoint x="253" y="1291.8" as="sourcePoint" />
            <mxPoint x="291.75000000000045" y="1292.6250000000002" as="targetPoint" />
          </mxGeometry>
        </mxCell>
        <mxCell id="XonzfU6cnXxWhyrc8ULt-2" value="Github Actions" style="dashed=0;outlineConnect=0;html=1;align=center;labelPosition=center;verticalLabelPosition=top;verticalAlign=bottom;shape=mxgraph.weblogos.github" parent="1" vertex="1">
          <mxGeometry x="249.75" y="1269.25" width="60.5" height="60.5" as="geometry" />
        </mxCell>
        <mxCell id="dy0-1PoWe1TbCDGHFwGR-22" value="deploy" style="edgeStyle=orthogonalEdgeStyle;rounded=0;orthogonalLoop=1;jettySize=auto;html=1;entryX=0.5;entryY=1;entryDx=0;entryDy=0;entryPerimeter=0;" parent="1" source="XonzfU6cnXxWhyrc8ULt-2" target="xALoKViy8auc1gzHxUwG-1" edge="1">
          <mxGeometry relative="1" as="geometry">
            <mxPoint x="320.875" y="1048" as="sourcePoint" />
            <Array as="points">
              <mxPoint x="280" y="1250" />
              <mxPoint x="423" y="1250" />
            </Array>
          </mxGeometry>
        </mxCell>
        <mxCell id="rJwY-jtqr0xnqbSxwwkC-11" style="edgeStyle=orthogonalEdgeStyle;rounded=0;orthogonalLoop=1;jettySize=auto;html=1;" parent="1" source="rJwY-jtqr0xnqbSxwwkC-7" target="glTbuXtbrnzx0vPCisSr-16" edge="1">
          <mxGeometry relative="1" as="geometry">
            <Array as="points">
              <mxPoint x="635" y="1020" />
              <mxPoint x="-81" y="1020" />
            </Array>
          </mxGeometry>
        </mxCell>
      </root>
    </mxGraphModel>
  </diagram>
</mxfile>
